<?xml version="1.0" encoding="UTF-8" standalone="no"?>
<!-- Created with Inkscape (http://www.inkscape.org/) -->

<svg
   height="400"
   width="1000"
   sodipodi:docname="logo.svg"
   version="1.1"
   id="svg68"
   viewBox="0 0 1000 400"
   inkscape:version="1.2.2 (732a01da63, 2022-12-09)"
   xmlns:inkscape="http://www.inkscape.org/namespaces/inkscape"
   xmlns:sodipodi="http://sodipodi.sourceforge.net/DTD/sodipodi-0.dtd"
   xmlns="http://www.w3.org/2000/svg"
   xmlns:svg="http://www.w3.org/2000/svg"
   xmlns:rdf="http://www.w3.org/1999/02/22-rdf-syntax-ns#"
   xmlns:cc="http://creativecommons.org/ns#"
   xmlns:dc="http://purl.org/dc/elements/1.1/">
  <sodipodi:namedview
     id="base"
     pagecolor="#ffffff"
     bordercolor="#000000"
     borderopacity="0.3"
     inkscape:pageopacity="0.0"
     inkscape:pageshadow="2"
     inkscape:zoom="0.6609518"
     inkscape:cx="574.17197"
     inkscape:cy="93.804117"
     inkscape:document-units="px"
     inkscape:current-layer="layer1"
     showgrid="false"
     showguides="false"
     inkscape:window-width="1920"
     inkscape:window-height="1009"
     inkscape:window-x="-8"
     inkscape:window-y="-8"
     inkscape:window-maximized="1"
     showborder="true"
     inkscape:showpageshadow="false"
     inkscape:pagecheckerboard="0"
     inkscape:deskcolor="#d1d1d1">
    <sodipodi:guide
       id="guide_baseline"
       inkscape:label="baseline"
       position="0,-347"
       orientation="0,1"
       inkscape:locked="false" />
    <sodipodi:guide
       id="guide_ascender"
       inkscape:label="ascender"
       position="0,345"
       orientation="0,1"
       inkscape:locked="false" />
    <sodipodi:guide
       id="guide_caps"
       inkscape:label="caps"
       position="0,296"
       orientation="0,1"
       inkscape:locked="false" />
    <sodipodi:guide
       id="guide_xheight"
       inkscape:label="xheight"
       position="0,129"
       orientation="0,1"
       inkscape:locked="false" />
    <sodipodi:guide
       id="guide_descender"
       inkscape:label="descender"
       position="0,-572"
       orientation="0,1"
       inkscape:locked="false" />
  </sodipodi:namedview>
  <defs
     id="defs4">
    <rect
       x="10.590787"
       y="25.720484"
       width="971.3265"
       height="270.82156"
       id="rect302" />
    <rect
       x="22.694544"
       y="34.798301"
       width="969.81353"
       height="267.79562"
       id="rect296" />
    <rect
       x="-68.083633"
       y="-66.570664"
       width="1189.1941"
       height="532.56531"
       id="rect290" />
  </defs>
  <metadata
     id="metadata7">
    <rdf:RDF>
      <cc:Work
         rdf:about="">
        <dc:format>image/svg+xml</dc:format>
        <dc:type
           rdf:resource="http://purl.org/dc/dcmitype/StillImage" />
      </cc:Work>
    </rdf:RDF>
  </metadata>
  <g
     id="layer1"
     inkscape:groupmode="layer"
     inkscape:label="Layer 1">
    <g
       id="g36426"
       transform="translate(10.14107,-297.6305)">
      <path
         d="m 151.90051,528.24558 q 0,9.72448 -4.85148,17.33495 -4.66488,7.61047 -13.43487,12.82505 -8.76998,5.21457 -20.89869,7.89233 -12.1287,2.67775 -26.683124,2.67775 -8.956585,0 -17.16679,-1.12748 -8.023603,-0.98654 -14.554447,-2.53681 -6.344234,-1.69122 -10.822528,-3.38244 -4.478287,-1.83214 -6.530836,-3.24149 -2.05255,-1.40934 -2.985527,-3.94616 -0.932978,-2.53683 -0.932978,-6.90579 0,-2.67776 0.373188,-4.50991 0.373195,-1.83215 0.932977,-2.95963 0.55979,-1.12747 1.492768,-1.55027 1.119572,-0.56374 2.425737,-0.56374 2.05255,0 5.971054,1.97308 4.105106,1.83215 9.889559,4.0871 5.971054,2.25495 13.994657,4.22804 8.023603,1.83215 18.472948,1.83215 7.837,0 14.181252,-1.26841 6.34424,-1.26841 11.00912,-3.6643 4.66488,-2.53683 7.09063,-6.34206 2.61233,-3.80522 2.61233,-9.01981 0,-5.35551 -3.73191,-9.0198 -3.5453,-3.6643 -9.51636,-6.483 -5.97106,-2.81869 -13.434863,-4.9327 -7.463824,-2.25495 -15.487422,-4.65084 -7.83701,-2.39589 -15.487425,-5.35551 -7.463814,-3.10056 -13.434868,-7.46953 -5.971054,-4.36897 -9.702964,-10.42916 -3.54531,-6.06018 -3.54531,-14.51625 0,-7.46953 3.731911,-14.23439 3.918505,-6.90579 11.568913,-11.97943 7.650415,-5.21457 19.032733,-8.31514 11.568915,-3.10056 26.869749,-3.10056 6.717426,0 13.434856,0.8456 6.71743,0.84562 12.12871,2.11402 5.41127,1.26842 9.14317,2.8187 3.9185,1.40934 5.78445,2.53682 2.05255,1.12748 2.61234,1.97308 0.74638,0.84561 0.93298,1.97309 0.37319,0.98653 0.55978,2.53682 0.37319,1.55028 0.37319,3.80522 0,2.39589 -0.37319,4.22805 -0.18659,1.69121 -0.93297,2.81868 -0.55979,1.12748 -1.49277,1.69122 -0.93298,0.4228 -2.05255,0.4228 -1.67936,0 -4.85148,-1.55027 -3.17212,-1.55029 -8.2102,-3.2415 -5.03807,-1.83216 -11.9421,-3.38243 -6.71744,-1.55028 -15.487411,-1.55028 -7.837016,0 -13.808059,1.40935 -5.971057,1.2684 -9.889562,3.80523 -3.731911,2.39588 -5.784459,5.77832 -1.865964,3.38242 -1.865964,7.32859 0,5.49644 3.731919,9.30167 3.731903,3.66431 9.702956,6.48299 5.971066,2.81869 13.621474,5.07365 7.650396,2.25495 15.487416,4.65083 8.0236,2.39589 15.67401,5.35551 7.837,2.95963 13.80806,7.18767 5.97104,4.22803 9.51636,10.14728 3.73191,5.91926 3.73191,14.09345 z"
         style="font-size:689.795px;font-family:Calibri;-inkscape-font-specification:Calibri;stroke-width:1.72977"
         id="path3658" />
      <path
         d="m 226.72528,562.77454 c 0,0.75165 -0.2488,1.40935 -0.74638,1.97309 -0.49759,0.46978 -1.30617,0.89258 -2.42575,1.2684 -1.11957,0.37583 -2.67452,0.6577 -4.66487,0.84561 -1.99035,0.18791 -4.5405,0.28187 -7.65042,0.28187 -2.98553,0 -5.47346,-0.094 -7.46381,-0.28187 -1.99035,-0.18791 -3.60752,-0.46978 -4.85149,-0.84561 -1.11957,-0.37582 -1.92815,-0.79862 -2.42573,-1.2684 -0.3732,-0.56374 -0.5598,-1.22144 -0.5598,-1.97309 V 435.93347 c 0,-0.65768 0.1866,-1.26841 0.5598,-1.83214 0.49758,-0.56375 1.30616,-1.03352 2.42573,-1.40935 1.24397,-0.37582 2.86114,-0.65769 4.85149,-0.84561 1.99035,-0.18791 4.47828,-0.28187 7.46381,-0.28187 3.10992,0 5.66007,0.094 7.65042,0.28187 1.99035,0.18792 3.5453,0.46979 4.66487,0.84561 1.11958,0.37583 1.92816,0.8456 2.42575,1.40935 0.49758,0.56373 0.74638,1.17446 0.74638,1.83214 z"
         style="font-size:689.795px;font-family:Calibri;-inkscape-font-specification:Calibri;stroke-width:1.72977"
         id="path3660"
         sodipodi:nodetypes="scssssccssccsssssss" />
      <path
         d="m 511.55844,562.77454 c 0,0.75165 -0.22763,1.40934 -0.6829,1.97309 -0.45528,0.46978 -1.1951,0.89258 -2.21946,1.2684 -1.02437,0.37583 -2.44711,0.6577 -4.26821,0.84561 -1.82109,0.18791 -4.09745,0.28187 -6.82909,0.28187 -2.84547,0 -5.17876,-0.094 -6.99985,-0.28187 -1.8211,-0.18791 -3.30074,-0.46978 -4.43892,-0.84561 -1.02437,-0.37582 -1.76419,-0.79862 -2.21947,-1.2684 -0.45527,-0.56375 -0.6829,-1.22144 -0.6829,-1.97309 v -72.44028 c 0,-5.35551 -0.56909,-10.24124 -1.70727,-14.65719 -1.13819,-4.41595 -2.95929,-8.22118 -5.4633,-11.4157 -2.50401,-3.19451 -5.69092,-5.63738 -9.56075,-7.32859 -3.86983,-1.69121 -8.42257,-2.53682 -13.65822,-2.53682 -6.48765,0 -13.03221,2.06704 -19.6337,6.20111 -6.48765,4.13409 -13.65821,10.19427 -21.51168,18.18056 v 83.99691 c 0,0.75165 -0.22764,1.40934 -0.68292,1.97309 -0.45527,0.46978 -1.252,0.89258 -2.39019,1.2684 -1.02437,0.37583 -2.44709,0.6577 -4.26818,0.84561 -1.82111,0.18791 -4.09748,0.28187 -6.82913,0.28187 -2.61782,0 -4.89419,-0.094 -6.82911,-0.28187 -1.82109,-0.18791 -3.30073,-0.46978 -4.43892,-0.84561 -1.02436,-0.37582 -1.76418,-0.79862 -2.21945,-1.2684 -0.34146,-0.56375 -0.51219,-1.22144 -0.51219,-1.97309 v -72.44028 c 0,-5.35551 -0.626,-10.24124 -1.878,-14.65719 -1.252,-4.41595 -3.13001,-8.22118 -5.63402,-11.4157 -2.50401,-3.19451 -5.69092,-5.63738 -9.56075,-7.32859 -3.75601,-1.69121 -8.25185,-2.53682 -13.4875,-2.53682 -6.48765,0 -13.03221,2.06704 -19.63369,6.20111 -6.60147,4.13409 -13.77203,10.19427 -21.51168,18.18056 v 83.99691 c 0,0.75165 -0.22764,1.40934 -0.68292,1.97309 -0.45528,0.46978 -1.1951,0.89258 -2.21946,1.2684 -1.02437,0.37583 -2.4471,0.6577 -4.2682,0.84561 -1.8211,0.18791 -5.52139,0.28187 -8.36685,0.28187 -2.73164,0 -3.9144,-0.094 -5.7355,-0.28187 -1.8211,-0.18791 -3.30074,-0.46978 -4.43892,-0.84561 -1.02437,-0.37582 -1.76419,-0.79862 -2.21946,-1.2684 -0.34146,-0.56375 -0.51219,-1.22144 -0.51219,-1.97309 V 435.93347 c 0,-0.75165 0.17073,-1.36236 0.51219,-1.83214 0.34145,-0.56374 1.02436,-1.03352 2.04873,-1.40935 1.02436,-0.46978 2.33327,-0.75165 3.92673,-0.84561 1.59346,-0.18791 2.6055,-0.28187 5.22333,-0.28187 2.50401,0 8.65377,0.094 10.24723,0.28187 1.70727,0.094 3.01618,0.37583 3.92673,0.84561 0.91055,0.37583 1.53655,0.84561 1.87801,1.40935 0.45527,0.46978 0.68291,1.08049 0.68291,1.83214 v 12.92336 c 8.65021,-7.98629 14.28185,-9.96373 22.36296,-13.62803 8.19493,-3.75825 16.44677,-5.63738 24.75552,-5.63738 6.37383,0 12.06476,0.61072 17.07278,1.83215 5.12183,1.22143 9.61766,2.95963 13.48749,5.21458 3.86983,2.16099 7.17057,4.79177 9.90222,7.89233 2.73164,3.00661 5.00801,6.38903 6.8291,10.14728 5.12183,-4.60386 9.95912,-8.50305 14.51186,-11.69756 4.66656,-3.19451 9.10548,-5.77831 13.31676,-7.7514 4.32511,-1.97309 8.47949,-3.38243 12.46314,-4.22803 4.09746,-0.93957 8.19492,-1.40935 12.29239,-1.40935 9.90221,0 18.21097,1.45632 24.92626,4.36897 6.71529,2.81869 12.12166,6.62392 16.21913,11.41569 4.21128,4.79178 7.17056,10.42916 8.87783,16.91215 1.8211,6.38903 2.73165,13.15388 2.73165,20.29457 z"
         style="font-size:689.795px;font-family:Calibri;-inkscape-font-specification:Calibri;stroke-width:1.65459"
         id="path3662"
         sodipodi:nodetypes="scssssccssssssccsccsscccsssscsscscssssccsscccscccsccscccccccscccss" />
      <path
         d="m 697.57376,435.6516 q 0,0.56375 -0.18659,1.26842 0,0.56374 -0.1866,1.26841 -0.18659,0.70466 -0.55979,1.55028 -0.18659,0.8456 -0.55978,1.83215 l -57.28478,120.49901 q -0.74639,1.55028 -2.05256,2.53682 -1.11957,0.98654 -3.54532,1.55028 -2.42574,0.56374 -6.15764,0.70467 -3.7319,0.28187 -9.32978,0.28187 -5.59786,0 -9.32977,-0.28187 -3.7319,-0.28186 -6.15764,-0.84561 -2.23915,-0.56373 -3.54532,-1.55028 -1.30616,-0.98654 -2.05255,-2.39588 l -57.0982,-120.49901 q -0.74637,-1.69122 -1.30616,-2.95963 -0.37319,-1.26841 -0.55978,-1.83215 0,-0.70467 0,-1.12748 0,-1.12747 0.74637,-1.97307 0.74638,-0.84562 2.42575,-1.26842 1.86596,-0.56374 4.66489,-0.70467 2.98551,-0.14094 7.27721,-0.14094 5.41127,0 8.58339,0.28187 3.35872,0.14094 5.03807,0.70467 1.86596,0.56374 2.61235,1.40935 0.93298,0.84561 1.67935,2.11402 l 47.39524,104.57341 0.74638,1.69121 0.55978,-1.69121 46.83545,-104.57341 q 0.37319,-1.26841 1.30617,-2.11402 0.93298,-0.84561 2.61234,-1.40935 1.86596,-0.56373 4.85148,-0.70467 3.17212,-0.28187 8.2102,-0.28187 4.29169,0 7.09062,0.14094 2.79894,0.14093 4.2917,0.70467 1.67936,0.56374 2.23914,1.40935 0.74638,0.70467 0.74638,1.83214 z"
         style="font-size:689.795px;font-family:Calibri;-inkscape-font-specification:Calibri;fill:#8a8a8a;fill-opacity:1;stroke-width:1.72977"
         id="path3664" />
      <path
         d="m 763.25534,562.77454 c 0,0.75165 -0.24882,1.40935 -0.74639,1.97309 -0.49757,0.46978 -1.30617,0.89258 -2.42571,1.2684 -1.11955,0.37583 -2.67454,0.6577 -4.66496,0.84561 -1.99035,0.18791 -4.54048,0.28187 -7.65031,0.28187 -2.98557,0 -5.47348,-0.094 -7.46383,-0.28187 -1.99039,-0.18791 -3.60753,-0.46978 -4.85148,-0.84561 -1.11958,-0.37582 -1.9282,-0.79862 -2.42575,-1.2684 -0.37323,-0.56374 -0.55981,-1.22144 -0.55981,-1.97309 V 435.93347 c 0,-0.65768 0.18658,-1.26841 0.55981,-1.83214 0.49755,-0.56375 1.30617,-1.03352 2.42575,-1.40935 1.24395,-0.37582 2.86109,-0.65769 4.85148,-0.84561 1.99035,-0.18791 4.47826,-0.28187 7.46383,-0.28187 3.10983,0 5.65996,0.094 7.65031,0.28187 1.99042,0.18792 3.54541,0.46979 4.66496,0.84561 1.11954,0.37583 1.92814,0.8456 2.42571,1.40935 0.49757,0.56373 0.74639,1.17446 0.74639,1.83214 z"
         style="font-size:689.795px;font-family:Calibri;-inkscape-font-specification:Calibri;fill:#8a8a8a;fill-opacity:1;stroke-width:1.72977"
         id="path3666"
         sodipodi:nodetypes="scssssccssccsssssss" />
      <path
         d="m 946.67862,562.91547 q 0,1.69122 -1.49281,2.53683 -1.49265,0.84561 -4.10505,1.26841 -2.61232,0.4228 -7.65039,0.4228 -4.85158,0 -7.83712,-0.4228 -2.79881,-0.4228 -4.10505,-1.26841 -1.30616,-0.84561 -1.30616,-2.53683 v -12.6841 q -11.00916,8.87887 -24.63046,13.81158 -13.43491,4.93271 -28.54919,4.93271 -13.24834,0 -24.07084,-2.67775 -10.63593,-2.53682 -18.28631,-7.46953 -7.4638,-4.93271 -11.75552,-12.12037 -4.10512,-7.18767 -4.10512,-16.34841 0,-10.71102 5.78444,-18.60336 5.78441,-7.89232 16.60699,-13.1069 10.82259,-5.21459 26.49659,-7.7514 15.67391,-2.67776 35.26647,-2.67776 h 23.1379 v -9.86542 q 0,-7.32859 -2.05261,-12.96597 -2.05252,-5.63738 -6.71745,-9.30168 -4.47827,-3.80523 -11.75535,-5.63738 -7.27733,-1.97308 -17.91335,-1.97308 -11.38229,0 -20.52541,2.11401 -8.95663,1.97309 -15.86065,4.50991 -6.71745,2.39589 -11.38238,4.5099 -4.47819,1.97309 -6.71737,1.97309 -1.49281,0 -2.6124,-0.56374 -1.11951,-0.56374 -2.05244,-1.69121 -0.74643,-1.12748 -1.11959,-2.8187 -0.37316,-1.83215 -0.37316,-3.94616 0,-3.52336 0.5597,-5.49645 0.74648,-2.11402 3.17214,-3.94616 2.61241,-1.83216 8.77006,-4.22805 6.15758,-2.53682 14.18127,-4.5099 8.02361,-2.11402 17.53987,-3.38242 9.51634,-1.40935 19.21942,-1.40935 18.09975,0 30.7882,3.10056 12.68846,3.10057 20.52542,9.16075 7.83712,5.91924 11.38237,14.79812 3.54534,8.87888 3.54534,20.71738 z m -30.60163,-57.92408 h -26.31001 q -12.68846,0 -22.01823,1.69122 -9.32977,1.55027 -15.48743,4.79177 -6.15757,3.10055 -9.14328,7.61046 -2.79881,4.36898 -2.79881,10.14729 0,9.86541 8.21019,15.78467 8.39683,5.77831 23.32446,5.77831 12.12867,0 22.39146,-4.65084 10.44927,-4.65084 21.83165,-14.23439 z"
         style="font-size:689.795px;font-family:Calibri;-inkscape-font-specification:Calibri;fill:#8a8a8a;fill-opacity:1;stroke-width:1.72977"
         id="path3668" />
      <path
         style="color:#000000;fill:#000000;stroke-width:0.439939;-inkscape-stroke:none"
         d="m 211.33116,339.65397 c -19.53321,0 -37.40509,5.28266 -50.88008,14.41402 -13.47498,9.13133 -22.74948,19.65023 -22.74948,34.99294 0,0 0.2226,3.00604 10.30801,3.00604 10.08541,0 10.30801,-3.00604 10.30801,-3.00604 0,-8.35588 4.90064,-13.28062 14.34361,-19.67967 9.44297,-6.39905 23.2315,-10.72202 38.66993,-10.72202 15.43841,0 29.22785,4.32297 38.67082,10.72202 9.44296,6.39905 14.3436,11.32379 14.3436,19.67967 0,0 0.22231,3.00604 10.30757,3.00604 10.08528,0 10.30757,-3.00604 10.30757,-3.00604 0,-15.34271 -9.27451,-25.86161 -22.7495,-34.99294 -13.47497,-9.13136 -31.34687,-14.41402 -50.88006,-14.41402 z"
         id="path2052"
         sodipodi:nodetypes="ssczcsssczcss" />
      <path
         id="path3675"
         style="fill:#4141e2;fill-opacity:1;stroke-width:42.8858"
         d="m 240.24067,396.43118 c -3.52022,6.41359 -13.18713,15.75537 -28.90951,15.968 -15.96437,0.21591 -26.13163,-8.81137 -28.90953,-15.968 4.41604,-6.88918 12.94324,-15.968 28.90953,-15.968 15.96628,0 25.42031,9.55019 28.90951,15.968 z"
         sodipodi:nodetypes="cscsc"
         inkscape:transform-center-y="10.809992"
         inkscape:transform-center-x="5.1373351e-06" />
    </g>
    <g
       id="g36443"
       transform="matrix(0.80376016,0,0,0.80166221,224.29369,105.42979)">
      <text
         xml:space="preserve"
         style="font-style:normal;font-variant:normal;font-weight:normal;font-stretch:normal;font-size:0.134402px;font-family:'Century Gothic';-inkscape-font-specification:'Century Gothic, Normal';font-variant-ligatures:normal;font-variant-caps:normal;font-variant-numeric:normal;font-variant-east-asian:normal;white-space:pre;inline-size:1.64908;display:inline;fill:#000000;fill-opacity:1;stroke:none;stroke-width:0.440837;stroke-dasharray:none;stroke-opacity:1"
         x="2.5801451"
         y="0.64906025"
         id="text22033-0"
         transform="matrix(614.07098,0,0,527.48494,-1487.8233,-37.840518)"
         inkscape:transform-center-x="260.98487"
         inkscape:transform-center-y="-36.768031"><tspan
           x="2.5801451"
           y="0.64906025"
           id="tspan432">Security Reimagined</tspan></text>
      <text
         xml:space="preserve"
         transform="matrix(1.0654575,0,0,1.2474082,-32.083491,-131.51398)"
         id="text288"
         style="font-style:normal;font-variant:normal;font-weight:normal;font-stretch:normal;font-size:65.5403px;font-family:sans-serif;-inkscape-font-specification:'sans-serif, Normal';font-variant-ligatures:normal;font-variant-caps:normal;font-variant-numeric:normal;font-variant-east-asian:normal;white-space:pre;shape-inside:url(#rect290);fill:#000000;stroke-width:44.993" />
      <text
         xml:space="preserve"
         transform="matrix(1.0654575,0,0,1.2474082,-32.083491,-131.51398)"
         id="text294"
         style="font-style:normal;font-variant:normal;font-weight:normal;font-stretch:normal;font-size:65.5403px;font-family:sans-serif;-inkscape-font-specification:'sans-serif, Normal';font-variant-ligatures:normal;font-variant-caps:normal;font-variant-numeric:normal;font-variant-east-asian:normal;white-space:pre;shape-inside:url(#rect296);fill:#000000;stroke-width:44.993" />
      <text
         xml:space="preserve"
         transform="matrix(1.0654575,0,0,1.2474082,-32.083491,-131.51398)"
         id="text300"
         style="font-style:normal;font-variant:normal;font-weight:normal;font-stretch:normal;font-size:65.5403px;font-family:sans-serif;-inkscape-font-specification:'sans-serif, Normal';font-variant-ligatures:normal;font-variant-caps:normal;font-variant-numeric:normal;font-variant-east-asian:normal;white-space:pre;shape-inside:url(#rect302);fill:#000000;stroke-width:44.993" />
    </g>
  </g>
</svg>
